# xmcd
#
# Track frame offsets:
#	150
#	14143
#	26586
#	39471
#	51983
#	65041
#	75789
#	89722
#	100334
#	116686
#	129087
#	142364
#	159183
#	172217
#	184928
#	195534
#	207562
#	219821
#	233806
#	245828
#	258559
#	271129
#	283414
#	294912
#	308618
#	321708
#	330736
#	341888
#
# Disc length: 4687 seconds
#
# Revision: 1
# Processed by: cddbd v1.5.2PL0 Copyright (c) Steve Scherf et al.
# Submitted via: audiograbber 1.83.01
#
DISCID=ba124d1c
DTITLE=hank snow - souvenirs (1961) Big Country Hits (Songs I Hadn't Recorded T
DTITLE=ill Now)  (1961)
DYEAR=2016
DGENRE=country
TTITLE0=The Rhumba Boogie
TTITLE1=I'm Movin' On
TTITLE2=(Now And Then There's) A Fool Such As I
TTITLE3=The Golden Rocket
TTITLE4=I Don't Hurt Any More
TTITLE5=Music Makin' Mama From Memphis
TTITLE6=With This Ring I Thee Wed
TTITLE7=Conscience
TTITLE8=Bluebird Island
TTITLE9=Marriage Vow
TTITLE10=These Hands
TTITLE11=My Mother
TTITLE12=I Love You Because
TTITLE13=I Care No More
TTITLE14=A Legend In My Time
TTITLE15=That Heart Belongs To Me
TTITLE16=Fräulein
TTITLE17=Bury Me Deep
TTITLE18=Send Me The Pillow You Dream On
TTITLE19=A Petal From A Faded Rose
TTITLE20=Return To Me
TTITLE21=I'll Go On Alone
TTITLE22=Mansion On The Hill
TTITLE23=Address Unknown
TTITLE24=my adobe hacienda (with anita carter) bonus
TTITLE25=mockin' bird hill (with anita carter) bonus
TTITLE26=for sale (with anita carter) bonus
TTITLE27=if it's wrong to love you (with anita carter) bonus
EXTD=
EXTT0=
EXTT1=
EXTT2=
EXTT3=
EXTT4=
EXTT5=
EXTT6=
EXTT7=
EXTT8=
EXTT9=
EXTT10=
EXTT11=
EXTT12=
EXTT13=
EXTT14=
EXTT15=
EXTT16=
EXTT17=
EXTT18=
EXTT19=
EXTT20=
EXTT21=
EXTT22=
EXTT23=
EXTT24=
EXTT25=
EXTT26=
EXTT27=
PLAYORDER=
